<!--?xml version="1.0" standalone="no"?-->
              <svg id="sw-js-blob-svg" viewBox="0 0 100 100" xmlns="http://www.w3.org/2000/svg" version="1.1">
                    <defs> 
                        <linearGradient id="sw-gradient" x1="0" x2="1" y1="1" y2="0">
                            <stop id="stop1" stop-color="rgba(248, 117, 55, 1)" offset="0%"></stop>
                            <stop id="stop2" stop-color="rgba(251, 168, 31, 1)" offset="100%"></stop>
                        </linearGradient>
                    </defs>
                <path fill="url(#sw-gradient)" d="M24.5,-31.4C32.3,-28.1,39.5,-21.7,40.8,-14.1C42.2,-6.5,37.6,2.1,33.4,9.6C29.2,17,25.4,23.3,19.8,27.5C14.3,31.7,7.2,33.8,0.5,33.1C-6.1,32.3,-12.2,28.8,-19.9,25.3C-27.6,21.8,-36.8,18.4,-39.6,12.3C-42.3,6.2,-38.6,-2.6,-35.3,-11.1C-32,-19.7,-29.2,-28,-23.4,-31.9C-17.6,-35.7,-8.8,-35.1,-0.2,-34.9C8.4,-34.6,16.8,-34.6,24.5,-31.4Z" width="100%" height="100%" transform="translate(50 50)" stroke-width="0" style="transition: all 0.3s ease 0s;"></path>
              </svg>